<svg width="400" height="447" viewBox="0 0 400 447" fill="none" xmlns="http://www.w3.org/2000/svg">
<path d="M200 447L124.656 324L275.344 324L200 447Z" fill="#03045E"/>
<ellipse cx="200" cy="200" rx="200" ry="200" fill="url(#paint0_linear_794_8)"/>
<ellipse cx="199.988" cy="199.976" rx="182.609" ry="182.609" fill="white"/>
<ellipse cx="200.012" cy="199.948" rx="165.217" ry="165.217" fill="#F7F7F7"/>
<path d="M213.908 130.978C212.79 105.382 238.588 95.2501 238.44 78.332" stroke="url(#paint1_linear_794_8)" stroke-width="10" stroke-linecap="round"/>
<path d="M108.572 151.773H278.813V252.437C278.813 275.356 260.233 293.937 237.313 293.937H150.072C127.153 293.937 108.572 275.356 108.572 252.437V151.773Z" stroke="#03045E" stroke-width="7"/>
<path d="M84.1535 294.164H303.231C301.457 314.822 284.127 331.036 263.009 331.036H124.375C103.258 331.036 85.9275 314.822 84.1535 294.164Z" stroke="#03045E" stroke-width="7"/>
<mask id="path-8-inside-1_794_8" fill="white">
<path d="M275.293 170.582C275.293 170.03 275.741 169.582 276.293 169.582H305.919C314.204 169.582 320.919 176.298 320.919 184.582V206.796C320.919 228.887 303.011 246.796 280.919 246.796H276.293C275.741 246.796 275.293 246.348 275.293 245.796V170.582Z"/>
</mask>
<path d="M275.293 170.582C275.293 170.03 275.741 169.582 276.293 169.582H305.919C314.204 169.582 320.919 176.298 320.919 184.582V206.796C320.919 228.887 303.011 246.796 280.919 246.796H276.293C275.741 246.796 275.293 246.348 275.293 245.796V170.582Z" stroke="#03045E" stroke-width="14" mask="url(#path-8-inside-1_794_8)"/>
<path d="M170.056 130.975C168.334 90.8738 208.072 75.001 207.845 48.4961" stroke="url(#paint2_linear_794_8)" stroke-width="10" stroke-linecap="round"/>
<path d="M132.059 257V243.427L161.192 217.825C167.923 211.646 171.786 207.562 171.896 201.493C171.786 194.872 166.93 190.679 160.199 190.679C153.357 190.679 148.833 194.982 148.833 202.266H130.956C130.956 186.154 142.763 176.002 160.309 176.002C178.296 176.002 190.104 185.713 190.104 200.059C190.104 209.218 185.58 216.832 168.254 231.95L158.212 241.22V241.771H191.097V257H132.059ZM191.132 243.537V228.86L224.238 177.105H247.964V228.75H257.674V243.537H247.964V257H229.976V243.537H191.132ZM209.892 228.75H230.307V197.079H229.645L209.892 228.088V228.75Z" fill="url(#paint3_linear_794_8)"/>
<defs>
<linearGradient id="paint0_linear_794_8" x1="100" y1="378.261" x2="304.348" y2="30.4348" gradientUnits="userSpaceOnUse">
<stop stop-color="#F6C744"/>
<stop offset="0.2" stop-color="#ED6D32"/>
<stop offset="0.4" stop-color="#EC6037"/>
<stop offset="0.6" stop-color="#EA3B58"/>
<stop offset="0.8" stop-color="#EA3566"/>
<stop offset="1" stop-color="#CB4CC9"/>
</linearGradient>
<linearGradient id="paint1_linear_794_8" x1="220.015" y1="128.117" x2="250.006" y2="104.294" gradientUnits="userSpaceOnUse">
<stop stop-color="#F6C744"/>
<stop offset="0.2" stop-color="#ED6D32"/>
<stop offset="0.4" stop-color="#EC6037"/>
<stop offset="0.6" stop-color="#EA3B58"/>
<stop offset="0.8" stop-color="#EA3566"/>
<stop offset="1" stop-color="#CB4CC9"/>
</linearGradient>
<linearGradient id="paint2_linear_794_8" x1="179.463" y1="126.492" x2="226.264" y2="89.9408" gradientUnits="userSpaceOnUse">
<stop stop-color="#F6C744"/>
<stop offset="0.2" stop-color="#ED6D32"/>
<stop offset="0.4" stop-color="#EC6037"/>
<stop offset="0.6" stop-color="#EA3B58"/>
<stop offset="0.8" stop-color="#EA3566"/>
<stop offset="1" stop-color="#CB4CC9"/>
</linearGradient>
<linearGradient id="paint3_linear_794_8" x1="156.52" y1="262.452" x2="197.604" y2="159.552" gradientUnits="userSpaceOnUse">
<stop stop-color="#F6C744"/>
<stop offset="0.2" stop-color="#ED6D32"/>
<stop offset="0.4" stop-color="#EC6037"/>
<stop offset="0.6" stop-color="#EA3B58"/>
<stop offset="0.8" stop-color="#EA3566"/>
<stop offset="1" stop-color="#CB4CC9"/>
</linearGradient>
</defs>
</svg>
