<svg width="23" height="23" viewBox="0 0 23 23" fill="none" xmlns="http://www.w3.org/2000/svg">
    <path d="M11.5 0C5.15882 0 0 5.15881 0 11.4999C0 17.8411 5.15882 23 11.5 23C17.8412 23 23 17.8411 23 11.4999C23 5.15881 17.8412 0 11.5 0ZM12.2823 21.4056V16.6604C12.2823 16.2287 11.932 15.8785 11.5 15.8785C11.068 15.8785 10.7177 16.2286 10.7177 16.6604V21.4056C5.86153 21.0255 1.97494 17.1384 1.59515 12.2819H6.33723C6.76916 12.2819 7.1195 11.9318 7.1195 11.5C7.1195 11.0682 6.76916 10.7181 6.33723 10.7181H1.59515C1.97494 5.86151 5.86153 1.97452 10.7177 1.59443V6.33956C10.7177 6.77129 11.068 7.12148 11.5 7.12148C11.932 7.12148 12.2823 6.77137 12.2823 6.33956V1.59443C17.1385 1.97452 21.0251 5.86159 21.4048 10.7181H16.6628C16.2308 10.7181 15.8805 11.0682 15.8805 11.5C15.8805 11.9318 16.2308 12.2819 16.6628 12.2819H21.4048C21.025 17.1385 17.1384 21.0255 12.2823 21.4056Z" fill="#696969"/>
</svg>
