<svg width="400" height="447" viewBox="0 0 400 447" fill="none" xmlns="http://www.w3.org/2000/svg">
<path d="M200 447L124.656 324L275.344 324L200 447Z" fill="#03045E"/>
<ellipse cx="200" cy="200" rx="200" ry="200" fill="#03045E"/>
<ellipse cx="199.988" cy="199.976" rx="182.609" ry="182.609" fill="white"/>
<ellipse cx="200.012" cy="199.948" rx="165.217" ry="165.217" fill="#F7F7F7"/>
<path d="M197.462 138.239V150.93H158.729V183.373H142.948V150.93H104.877V138.239H197.462ZM186.758 87.0361V128.308H115.471V87.0361H186.758ZM131.03 99.6162V115.838H170.867V99.6162H131.03ZM287.729 82.4014V154.792H271.839V82.4014H287.729ZM290.268 169.248V181.938H219.091V147.509H235.202V169.248H290.268ZM232.002 88.6914C247.672 88.6914 260.031 99.5059 260.031 114.403C260.031 129.632 247.672 140.336 232.002 140.336C216.332 140.336 203.862 129.632 203.973 114.403C203.862 99.5059 216.332 88.6914 232.002 88.6914ZM232.002 102.485C224.829 102.375 219.422 106.789 219.422 114.403C219.422 122.349 224.829 126.542 232.002 126.542C238.844 126.542 244.251 122.349 244.251 114.403C244.251 106.789 238.844 102.375 232.002 102.485ZM157.846 226.781C157.846 258.673 151.004 284.385 112.712 303.696L104.104 291.778C120.216 283.723 129.816 274.95 135.444 264.521L107.084 267.17L105.318 253.597L140.189 251.61C141.127 247.803 141.679 243.72 142.065 239.361H110.726V226.781H157.846ZM185.323 217.291V255.362H198.896V268.384H185.323V318.263H169.433V217.291H185.323ZM291.592 217.291V318.594H276.363V217.291H291.592ZM270.956 219.167V313.959H255.948V267.832H247.562V253.597H255.948V219.167H270.956ZM249.658 228.437V241.017H243.92V281.516C246.458 281.35 248.886 281.074 251.203 280.743L252.196 292.109C236.195 295.641 215.78 295.972 203.311 295.972L201.545 283.061H209.159V241.017H203.421V228.437H249.658ZM223.284 282.729C225.326 282.729 227.367 282.674 229.464 282.509V241.017H223.284V282.729Z" fill="#03045E"/>
</svg>
