<svg width="400" height="447" viewBox="0 0 400 447" fill="none" xmlns="http://www.w3.org/2000/svg">
<path d="M200 447L124.656 324L275.344 324L200 447Z" fill="#03045E"/>
<ellipse cx="200" cy="200" rx="200" ry="200" fill="url(#paint0_linear_794_6)"/>
<ellipse cx="199.988" cy="199.976" rx="182.609" ry="182.609" fill="white"/>
<ellipse cx="200.012" cy="199.948" rx="165.217" ry="165.217" fill="#F7F7F7"/>
<path d="M197.462 138.239V150.93H158.729V183.373H142.948V150.93H104.877V138.239H197.462ZM186.758 87.0361V128.308H115.471V87.0361H186.758ZM131.03 99.6162V115.838H170.867V99.6162H131.03ZM287.729 82.4014V154.792H271.839V82.4014H287.729ZM290.268 169.248V181.938H219.091V147.509H235.202V169.248H290.268ZM232.002 88.6914C247.672 88.6914 260.031 99.5059 260.031 114.403C260.031 129.632 247.672 140.336 232.002 140.336C216.332 140.336 203.862 129.632 203.973 114.403C203.862 99.5059 216.332 88.6914 232.002 88.6914ZM232.002 102.485C224.829 102.375 219.422 106.789 219.422 114.403C219.422 122.349 224.829 126.542 232.002 126.542C238.844 126.542 244.251 122.349 244.251 114.403C244.251 106.789 238.844 102.375 232.002 102.485Z" fill="#03045E"/>
<path d="M134.104 308V294.427L163.237 268.825C169.968 262.646 173.831 258.562 173.941 252.493C173.831 245.872 168.975 241.679 162.244 241.679C155.402 241.679 150.878 245.982 150.878 253.266H133.001C133.001 237.154 144.808 227.002 162.354 227.002C180.341 227.002 192.149 236.713 192.149 251.059C192.149 260.218 187.625 267.832 170.299 282.95L160.257 292.22V292.771H193.142V308H134.104ZM201.087 294.537V279.86L234.193 228.105H257.919V279.75H267.629V294.537H257.919V308H239.931V294.537H201.087ZM219.847 279.75H240.262V248.079H239.6L219.847 279.088V279.75Z" fill="url(#paint1_linear_794_6)"/>
<defs>
<linearGradient id="paint0_linear_794_6" x1="100" y1="378.261" x2="304.348" y2="30.4348" gradientUnits="userSpaceOnUse">
<stop stop-color="#F6C744"/>
<stop offset="0.2" stop-color="#ED6D32"/>
<stop offset="0.4" stop-color="#EC6037"/>
<stop offset="0.6" stop-color="#EA3B58"/>
<stop offset="0.8" stop-color="#EA3566"/>
<stop offset="1" stop-color="#CB4CC9"/>
</linearGradient>
<linearGradient id="paint1_linear_794_6" x1="162.52" y1="313.452" x2="203.604" y2="210.552" gradientUnits="userSpaceOnUse">
<stop stop-color="#F6C744"/>
<stop offset="0.2" stop-color="#ED6D32"/>
<stop offset="0.4" stop-color="#EC6037"/>
<stop offset="0.6" stop-color="#EA3B58"/>
<stop offset="0.8" stop-color="#EA3566"/>
<stop offset="1" stop-color="#CB4CC9"/>
</linearGradient>
</defs>
</svg>
