<svg width="400" height="447" viewBox="0 0 400 447" fill="none" xmlns="http://www.w3.org/2000/svg">
<path d="M200 447L124.656 324L275.344 324L200 447Z" fill="#03045E"/>
<ellipse cx="200" cy="200" rx="200" ry="200" fill="#03045E"/>
<ellipse cx="199.987" cy="199.976" rx="182.609" ry="182.609" fill="white"/>
<ellipse cx="200.012" cy="199.948" rx="165.217" ry="165.217" fill="#F7F7F7"/>
<path d="M213.906 130.978C212.789 105.382 238.586 95.2501 238.439 78.332" stroke="#023E5D" stroke-width="10" stroke-linecap="round"/>
<path d="M108.571 151.773H278.812V252.437C278.812 275.356 260.232 293.937 237.312 293.937H150.071C127.152 293.937 108.571 275.356 108.571 252.437V151.773Z" stroke="#03045E" stroke-width="7"/>
<path d="M303.23 294.164C301.456 314.822 284.126 331.036 263.008 331.036H124.374C103.257 331.036 85.9265 314.822 84.1525 294.164H303.23Z" stroke="#03045E" stroke-width="7"/>
<mask id="path-8-inside-1_795_18" fill="white">
<path d="M275.293 170.582C275.293 170.03 275.741 169.582 276.293 169.582H305.919C314.204 169.582 320.919 176.298 320.919 184.582V206.796C320.919 228.887 303.011 246.796 280.919 246.796H276.293C275.741 246.796 275.293 246.348 275.293 245.796V170.582Z"/>
</mask>
<path d="M275.293 170.582C275.293 170.03 275.741 169.582 276.293 169.582H305.919C314.204 169.582 320.919 176.298 320.919 184.582V206.796C320.919 228.887 303.011 246.796 280.919 246.796H276.293C275.741 246.796 275.293 246.348 275.293 245.796V170.582Z" stroke="#03045E" stroke-width="14" mask="url(#path-8-inside-1_795_18)"/>
<path d="M170.054 130.975C168.332 90.8738 208.07 75.001 207.843 48.4961" stroke="#023E5D" stroke-width="10" stroke-linecap="round"/>
</svg>
